<!DOCTYPE svg PUBLIC "-//W3C//DTD SVG 1.1//EN" "http://www.w3.org/Graphics/SVG/1.1/DTD/svg11.dtd">
<!-- Uploaded to: SVG Repo, www.svgrepo.com, Transformed by: SVG Repo Mixer Tools -->
<svg fill="#ffffff" width="800px" height="800px" viewBox="0 0 32 32" id="Outlined" xmlns="http://www.w3.org/2000/svg" stroke="#ffffff" stroke-width="0.8">
<g id="SVGRepo_bgCarrier" stroke-width="0"/>
<g id="SVGRepo_tracerCarrier" stroke-linecap="round" stroke-linejoin="round"/>
<g id="SVGRepo_iconCarrier"> <title/> <g id="Fill"> <path d="M10,10H3v2h7a2,2,0,0,0,2-2V3H10Z"/> <path d="M22,10V3H20v7a2,2,0,0,0,2,2h7V10Z"/> <path d="M20,22v7h2V22h7V20H22A2,2,0,0,0,20,22Z"/> <path d="M10,20H3v2h7v7h2V22A2,2,0,0,0,10,20Z"/> </g> </g>
</svg>